<svg id="Layer_1" data-name="Layer 1" xmlns="http://www.w3.org/2000/svg" xmlns:xlink="http://www.w3.org/1999/xlink" viewBox="0 0 426.33 233.71"><defs><style>.cls-1{fill:#191919;}.cls-2{fill:url(#linear-gradient);}</style><linearGradient id="linear-gradient" x1="1194.44" y1="549.41" x2="1475.6" y2="549.41" gradientUnits="userSpaceOnUse"><stop offset="0" stop-color="#654fef"/><stop offset="0.13" stop-color="#5f58f0"/><stop offset="0.34" stop-color="#4f72f1"/><stop offset="0.6" stop-color="#349bf3"/><stop offset="0.92" stop-color="#0fd4f6"/><stop offset="0.99" stop-color="#05e4f7"/></linearGradient></defs><title>Mulo Logo</title><path class="cls-1" d="M1414.47,530.55h0a8.45,8.45,0,0,1,8.45,8.45v39.18c0,11.05,7.64,18.21,18,18.21,9.92,0,17.56-7.15,17.56-18.21V539a8.45,8.45,0,0,1,8.45-8.45h.16a8.45,8.45,0,0,1,8.45,8.45v37.88c0,21.46-15.12,35.28-34.63,35.28-20,0-35-13.82-35-35.28V539A8.45,8.45,0,0,1,1414.47,530.55Z" transform="translate(-1194.44 -432.55)"/><path class="cls-1" d="M1507.95,488.44h.16a8.45,8.45,0,0,1,8.45,8.45v105a8.45,8.45,0,0,1-8.45,8.45h-.16a8.45,8.45,0,0,1-8.45-8.45v-105A8.45,8.45,0,0,1,1507.95,488.44Z" transform="translate(-1194.44 -432.55)"/><path class="cls-1" d="M1578.33,528.76c23.25-.49,42.92,19,42.43,41.62.49,22.6-19.18,42.27-42.43,41.78-22.92.49-42.59-19.18-42.1-41.78C1535.74,547.46,1555.41,528.44,1578.33,528.76Zm.16,15.61c-14.14,0-24.87,11.38-24.87,26.17s10.73,25.85,24.71,25.85c14.14,0,24.87-11.38,24.87-25.85C1603.21,555.75,1592.32,544.37,1578.5,544.37Z" transform="translate(-1194.44 -432.55)"/><path class="cls-2" d="M1475.59,656a11.23,11.23,0,0,0-.35-2.77v0s0-.07,0-.11h0c-.87-4.59-3.62-6.36-3.62-6.36h0c-4.62-3.8-16.84-5.4-22.41-5.94,0,0-34.14-6-71.92-57.84q-2-3.15-4-6.34c-25.06-41.28-41.24-88.31-50.37-135.57-2-10.42-16.67-11-21.65-2.83l-29.89,49a33.58,33.58,0,0,0-7-15.65c-5.15-6.26-13.19-10-21.33-7.84-9.6,2.51-13.83,10.88-17.23,19.33a518.63,518.63,0,0,0-31.17,114.7c-1,6.31,1.6,12.74,8.27,14.57,5.61,1.54,13.59-1.91,14.57-8.27a526.59,526.59,0,0,1,24.23-96.32q2.06-5.78,4.25-11.52c.48-1.24,1.46-3,2.31-4.66.86,5.34,0,11.09.82,16.57,1,6.83,3.65,13.53,9.23,17.89,6,4.68,14.25,4.73,18.6-2.4l29.48-48.29a456.23,456.23,0,0,0,37.58,97.6c17.16,32.7,41.29,65.74,75.17,82.53,11.21,5.56,30.59,13.44,44.92,10.11l.1,0c6.87-1.38,9.6-4.44,10.69-6.71a5.07,5.07,0,0,0,.71-2.38c0-.24,0-.38,0-.38Z" transform="translate(-1194.44 -432.55)"/></svg>